<svg width="20" height="20" viewBox="0 0 32 30" fill="none" xmlns="http://www.w3.org/2000/svg">
<g clip-path="url(#clip0_13_19)">
<path d="M22.9172 26.0203C22.7085 26.0211 22.5026 25.9744 22.3169 25.884L15.661 22.5757L9.00506 25.884C8.78893 25.9919 8.54525 26.0401 8.30172 26.0231C8.05819 26.006 7.82458 25.9244 7.62745 25.7876C7.43032 25.6508 7.27757 25.4642 7.18658 25.2491C7.09558 25.0339 7.06998 24.7989 7.11269 24.5706L8.41777 17.5947L3.04083 12.6384C2.87308 12.4795 2.75407 12.2802 2.69659 12.0619C2.63911 11.8436 2.64532 11.6146 2.71456 11.3994C2.79021 11.1792 2.92935 10.9835 3.1162 10.8346C3.30306 10.6856 3.53014 10.5894 3.77168 10.5568L11.2106 9.52839L14.4864 3.17199C14.5933 2.9625 14.7601 2.78583 14.9679 2.66221C15.1756 2.53859 15.4158 2.47302 15.661 2.47302C15.9061 2.47302 16.1464 2.53859 16.3541 2.66221C16.5618 2.78583 16.7287 2.9625 16.8355 3.17199L20.1505 9.516L27.5894 10.5444C27.831 10.577 28.058 10.6732 28.2449 10.8222C28.4318 10.9711 28.5709 11.1668 28.6465 11.387C28.7158 11.6022 28.722 11.8312 28.6645 12.0495C28.607 12.2678 28.488 12.4671 28.3203 12.626L22.9433 17.5823L24.2484 24.5582C24.295 24.7905 24.2706 25.0306 24.1781 25.2502C24.0856 25.4697 23.9289 25.6596 23.7264 25.7973C23.4901 25.9545 23.2055 26.033 22.9172 26.0203V26.0203ZM15.661 19.9489C15.8702 19.9439 16.0771 19.9909 16.2613 20.0852L21.1815 22.5633L20.2418 17.3469C20.2054 17.1477 20.2208 16.9431 20.2868 16.7509C20.3527 16.5586 20.4672 16.3847 20.6203 16.2441L24.5355 12.6137L19.0542 11.8454C18.8532 11.807 18.6645 11.7242 18.5036 11.6036C18.3426 11.4831 18.2138 11.3282 18.1276 11.1516L15.661 6.50507L13.1944 11.1516C13.0999 11.3296 12.9617 11.4834 12.7913 11.5999C12.6209 11.7164 12.4234 11.7921 12.2156 11.8207L6.73422 12.5889L10.6495 16.2193C10.8025 16.3599 10.917 16.5339 10.983 16.7261C11.049 16.9183 11.0644 17.1229 11.0279 17.3221L10.0883 22.4766L15.0084 19.9985C15.2169 19.9249 15.4428 19.9077 15.661 19.9489V19.9489Z" fill="#A35B33"/>
</g>
<defs>
<clipPath id="clip0_13_19">
<rect width="31.322" height="29.7375" fill="white"/>
</clipPath>
</defs>
</svg>
