<svg width="40" height="40" viewBox="0 0 61 60" fill="none" xmlns="http://www.w3.org/2000/svg">
<path d="M59.9573 28.2306C58.9373 10.8311 43.1276 -2.5786 24.918 0.421342C12.3782 2.4913 2.32841 12.661 0.378449 25.2007C-0.761528 32.4606 0.738502 39.3304 4.00844 45.0003L1.33846 54.9301C0.738472 57.1801 2.80837 59.22 5.02833 58.59L14.8082 55.8901C19.2481 58.5 24.438 60 29.9879 60C46.9075 60 60.9473 45.0903 59.9573 28.2306ZM44.6576 41.1604C44.3876 41.7004 44.0576 42.2104 43.6376 42.6903C42.8876 43.5003 42.0776 44.1003 41.1777 44.4603C40.2777 44.8503 39.2877 45.0303 38.2377 45.0303C36.7078 45.0303 35.0578 44.6706 33.3478 43.9206C31.6079 43.1706 29.8979 42.1804 28.1879 40.9504C26.448 39.6904 24.828 38.2804 23.268 36.7505C21.7081 35.1905 20.328 33.5405 19.068 31.8306C17.838 30.1206 16.8481 28.4106 16.1281 26.7007C15.4081 24.9907 15.0482 23.3409 15.0482 21.7809C15.0482 20.7609 15.2282 19.7709 15.5882 18.8709C15.9482 17.941 16.5182 17.101 17.3282 16.351C18.2882 15.391 19.3381 14.9411 20.4481 14.9411C20.868 14.9411 21.288 15.031 21.678 15.211C22.068 15.391 22.428 15.661 22.698 16.051L26.178 20.9709C26.448 21.3609 26.658 21.6909 26.7779 22.0208C26.9279 22.3508 26.9879 22.6508 26.9879 22.9508C26.9879 23.3108 26.8679 23.6709 26.658 24.0307C26.448 24.3907 26.178 24.7507 25.818 25.1107L24.678 26.3107C24.498 26.4907 24.438 26.6707 24.438 26.9107C24.438 27.0307 24.468 27.1507 24.498 27.2707C24.558 27.3907 24.588 27.4807 24.618 27.5706C24.888 28.0806 25.368 28.7106 26.028 29.4906C26.718 30.2706 27.4379 31.0806 28.2179 31.8606C29.0279 32.6705 29.8079 33.3905 30.6179 34.0805C31.3979 34.7405 32.0578 35.1905 32.5678 35.4605C32.6578 35.4905 32.7478 35.5505 32.8378 35.5805C32.9578 35.6405 33.0778 35.6405 33.2278 35.6405C33.4978 35.6405 33.6778 35.5505 33.8578 35.3705L34.9978 34.2305C35.3878 33.8405 35.7478 33.5705 36.0778 33.3905C36.4378 33.1805 36.7677 33.0605 37.1577 33.0605C37.4577 33.0605 37.7577 33.1205 38.0877 33.2705C38.4177 33.4205 38.7777 33.6005 39.1377 33.8705L44.1176 37.4105C44.5076 37.6804 44.7776 38.0104 44.9576 38.3704C45.1076 38.7604 45.1976 39.1204 45.1976 39.5404C45.0176 40.0504 44.8976 40.6204 44.6576 41.1604Z" fill="#A35B33"/>
</svg>

